<svg width="75" height="80" viewBox="0 0 75 80" fill="none" xmlns="http://www.w3.org/2000/svg">
<path fill-rule="evenodd" clip-rule="evenodd" d="M35.5174 0.00133102C52.7889 -0.153622 66.4033 13.241 71.7894 29.6132C77.2315 46.1557 74.6831 65.5372 60.3401 75.4558C46.722 84.8733 29.1193 78.271 15.9666 68.2167C4.0245 59.0877 -2.93688 44.6775 1.19909 30.2465C5.83827 14.0598 18.6428 0.152722 35.5174 0.00133102Z" fill="#F5BB42"/>
<path d="M25.4001 26.4C25.4001 25.286 25.8426 24.2178 26.6302 23.4301C27.4179 22.6424 28.4862 22.2 29.6001 22.2H39.2307C40.0658 22.2007 40.8665 22.533 41.4567 23.124L49.6782 31.3434C50.2683 31.9339 50.5999 32.7345 50.6001 33.5694V51.6C50.6001 52.7139 50.1576 53.7821 49.3699 54.5698C48.5823 55.3575 47.514 55.8 46.4001 55.8H44.7957C45.3375 55.1952 45.7659 54.4833 46.041 53.7H46.4001C46.957 53.7 47.4912 53.4787 47.885 53.0849C48.2788 52.6911 48.5001 52.1569 48.5001 51.6V34.8H41.1501C40.3147 34.8 39.5134 34.4681 38.9227 33.8773C38.332 33.2866 38.0001 32.4854 38.0001 31.65V24.3H29.6001C29.0431 24.3 28.509 24.5212 28.1152 24.915C27.7213 25.3089 27.5001 25.843 27.5001 26.4V41.457C26.7254 41.7318 26.012 42.1555 25.4001 42.7044V26.4ZM41.1501 32.7H48.0654L40.1001 24.7347V31.65C40.1001 31.9284 40.2107 32.1955 40.4076 32.3924C40.6045 32.5893 40.8716 32.7 41.1501 32.7ZM29.6001 43.2C28.4862 43.2 27.4179 43.6425 26.6302 44.4301C25.8426 45.2178 25.4001 46.286 25.4001 47.4V51.6C25.4001 52.7139 25.8426 53.7821 26.6302 54.5698C27.4179 55.3575 28.4862 55.8 29.6001 55.8C30.714 55.8 31.7823 55.3575 32.5699 54.5698C33.3576 53.7821 33.8001 52.7139 33.8001 51.6V47.4C33.8001 46.286 33.3576 45.2178 32.5699 44.4301C31.7823 43.6425 30.714 43.2 29.6001 43.2ZM27.5001 47.4C27.5001 46.843 27.7213 46.3089 28.1152 45.915C28.509 45.5212 29.0431 45.3 29.6001 45.3C30.157 45.3 30.6912 45.5212 31.085 45.915C31.4788 46.3089 31.7001 46.843 31.7001 47.4V51.6C31.7001 52.1569 31.4788 52.6911 31.085 53.0849C30.6912 53.4787 30.157 53.7 29.6001 53.7C29.0431 53.7 28.509 53.4787 28.1152 53.0849C27.7213 52.6911 27.5001 52.1569 27.5001 51.6V47.4ZM23.3001 44.4537C23.3001 44.0358 23.0901 43.7229 22.8759 43.536C22.697 43.3835 22.4812 43.2807 22.2501 43.2378C21.9708 43.1853 21.2001 43.1748 20.8452 43.9077C20.4252 44.775 19.7028 45.8628 18.5898 46.4823C18.4693 46.5493 18.3631 46.6394 18.2774 46.7474C18.1917 46.8554 18.1282 46.9793 18.0903 47.1119C18.0525 47.2445 18.0412 47.3832 18.057 47.5202C18.0728 47.6572 18.1154 47.7897 18.1824 47.9103C18.2494 48.0308 18.3395 48.1369 18.4475 48.2226C18.5556 48.3083 18.6794 48.3719 18.812 48.4097C18.9446 48.4475 19.0834 48.4589 19.2204 48.4431C19.3573 48.4273 19.4899 48.3847 19.6104 48.3177C20.1998 47.9856 20.7358 47.5665 21.2001 47.0745V54.75C21.2001 55.0284 21.3107 55.2955 21.5076 55.4924C21.7045 55.6893 21.9716 55.8 22.2501 55.8C22.5286 55.8 22.7956 55.6893 22.9925 55.4924C23.1895 55.2955 23.3001 55.0284 23.3001 54.75V44.4537ZM35.9001 47.4C35.9001 46.286 36.3426 45.2178 37.1302 44.4301C37.9179 43.6425 38.9862 43.2 40.1001 43.2C41.214 43.2 42.2823 43.6425 43.0699 44.4301C43.8576 45.2178 44.3001 46.286 44.3001 47.4V51.6C44.3001 52.7139 43.8576 53.7821 43.0699 54.5698C42.2823 55.3575 41.214 55.8 40.1001 55.8C38.9862 55.8 37.9179 55.3575 37.1302 54.5698C36.3426 53.7821 35.9001 52.7139 35.9001 51.6V47.4ZM40.1001 45.3C39.5431 45.3 39.009 45.5212 38.6152 45.915C38.2213 46.3089 38.0001 46.843 38.0001 47.4V51.6C38.0001 52.1569 38.2213 52.6911 38.6152 53.0849C39.009 53.4787 39.5431 53.7 40.1001 53.7C40.657 53.7 41.1912 53.4787 41.585 53.0849C41.9788 52.6911 42.2001 52.1569 42.2001 51.6V47.4C42.2001 46.843 41.9788 46.3089 41.585 45.915C41.1912 45.5212 40.657 45.3 40.1001 45.3Z" fill="white"/>
</svg>
