<svg width="75" height="80" viewBox="0 0 75 80" fill="none" xmlns="http://www.w3.org/2000/svg">
<path fill-rule="evenodd" clip-rule="evenodd" d="M35.5174 0.00133102C52.7889 -0.153622 66.4033 13.241 71.7894 29.6132C77.2315 46.1557 74.6831 65.5372 60.3401 75.4558C46.722 84.8733 29.1193 78.271 15.9666 68.2167C4.0245 59.0877 -2.93688 44.6775 1.19909 30.2465C5.83827 14.0598 18.6428 0.152722 35.5174 0.00133102Z" fill="#F5BB42"/>
<path d="M53.75 37.25V33.75H50.25V30.25C50.2472 29.3226 49.8776 28.434 49.2218 27.7782C48.566 27.1224 47.6774 26.7528 46.75 26.75H43.25V23.25H39.75V26.75H36.25V23.25H32.75V26.75H29.25C28.3226 26.7528 27.434 27.1224 26.7782 27.7782C26.1224 28.434 25.7528 29.3226 25.75 30.25V33.75H22.25V37.25H25.75V40.75H22.25V44.25H25.75V47.75C25.7528 48.6774 26.1224 49.566 26.7782 50.2218C27.434 50.8776 28.3226 51.2472 29.25 51.25H32.75V54.75H36.25V51.25H39.75V54.75H43.25V51.25H46.75C47.6774 51.2472 48.566 50.8776 49.2218 50.2218C49.8776 49.566 50.2472 48.6774 50.25 47.75V44.25H53.75V40.75H50.25V37.25H53.75ZM46.75 47.75H29.25V30.25H46.75V47.75Z" fill="white"/>
<path d="M36.8817 32H34.528L31.0105 46H32.8077L33.6197 42.7188H37.6727L38.4637 46H40.3222L36.8817 32ZM33.856 41.317L35.6375 33.6625H35.718L37.4382 41.317H33.856ZM41.927 32H43.677V46H41.927V32Z" fill="white"/>
</svg>
