<svg width="19" height="16" viewBox="0 0 19 16" fill="none" xmlns="http://www.w3.org/2000/svg">
<path d="M10.4693 15.2807C10.3995 15.211 10.3442 15.1283 10.3065 15.0373C10.2687 14.9462 10.2493 14.8486 10.2493 14.7501C10.2493 14.6515 10.2687 14.5539 10.3065 14.4628C10.3442 14.3718 10.3995 14.2891 10.4693 14.2194L15.9396 8.75005L1.2499 8.75005C1.05099 8.75005 0.86022 8.67103 0.719568 8.53038C0.578916 8.38973 0.499899 8.19896 0.499899 8.00005C0.499899 7.80114 0.578916 7.61037 0.719568 7.46972C0.86022 7.32907 1.05099 7.25005 1.2499 7.25005L15.9396 7.25005L10.4693 1.78068C10.3285 1.63994 10.2495 1.44907 10.2495 1.25005C10.2495 1.05103 10.3285 0.860156 10.4693 0.719425C10.61 0.578695 10.8009 0.499633 10.9999 0.499633C11.1989 0.499633 11.3898 0.578695 11.5305 0.719425L18.2805 7.46943C18.3503 7.53908 18.4056 7.6218 18.4433 7.71285C18.4811 7.80389 18.5005 7.90149 18.5005 8.00005C18.5005 8.09861 18.4811 8.19621 18.4433 8.28726C18.4056 8.3783 18.3503 8.46102 18.2805 8.53068L11.5305 15.2807C11.4609 15.3504 11.3782 15.4057 11.2871 15.4435C11.1961 15.4812 11.0985 15.5006 10.9999 15.5006C10.9013 15.5006 10.8037 15.4812 10.7127 15.4435C10.6216 15.4057 10.5389 15.3504 10.4693 15.2807Z" fill="#E9E9E9"/>
</svg>
