<svg width="75" height="80" viewBox="0 0 75 80" fill="none" xmlns="http://www.w3.org/2000/svg">
<path fill-rule="evenodd" clip-rule="evenodd" d="M35.5174 0.00133102C52.7889 -0.153622 66.4033 13.241 71.7894 29.6132C77.2315 46.1557 74.6831 65.5372 60.3401 75.4558C46.722 84.8733 29.1193 78.271 15.9666 68.2167C4.0245 59.0877 -2.93688 44.6775 1.19909 30.2465C5.83827 14.0598 18.6428 0.152722 35.5174 0.00133102Z" fill="#4183F5"/>
<path d="M37.5975 53V51.25H49.1737C49.4654 51.25 49.7174 51.1602 49.9297 50.9805C50.1432 50.8008 50.25 50.5652 50.25 50.2735V38.2195C50.25 34.9412 49.0448 32.2036 46.6345 30.0068C44.223 27.8088 41.3448 26.7098 38 26.7098C34.6552 26.7098 31.777 27.8088 29.3655 30.0068C26.9552 32.2036 25.75 34.9412 25.75 38.2195V48.1543H24.875C24.1598 48.1543 23.5433 47.9122 23.0253 47.428C22.5084 46.945 22.25 46.3465 22.25 45.6325V42.3338C22.25 41.8111 22.4197 41.3473 22.7592 40.9425C23.0999 40.5365 23.5135 40.2069 24 39.9538L24.0298 37.803C24.0613 35.9772 24.4579 34.2855 25.2197 32.728C25.9816 31.1705 26.9989 29.8154 28.2717 28.6628C29.5446 27.5101 31.0169 26.6118 32.6888 25.9678C34.3606 25.3238 36.131 25.0012 38 25C39.869 24.9988 41.6383 25.3208 43.3078 25.966C44.9772 26.6112 46.4432 27.5083 47.7055 28.6575C48.9678 29.8067 49.9799 31.16 50.7418 32.7175C51.5036 34.275 51.9131 35.9667 51.9702 37.7925L52 39.8978C52.4643 40.1159 52.8721 40.4093 53.2232 40.778C53.5744 41.1455 53.75 41.5871 53.75 42.1028V45.8933C53.75 46.4089 53.5744 46.8505 53.2232 47.218C52.8721 47.5855 52.4643 47.8783 52 48.0965V50.2735C52 51.0342 51.7247 51.6788 51.174 52.2073C50.6233 52.7358 49.9566 53 49.1737 53H37.5975ZM33.4237 41.6933C33.0621 41.6933 32.7471 41.5702 32.4788 41.324C32.2104 41.079 32.0763 40.7757 32.0763 40.414C32.0763 40.0523 32.2104 39.7432 32.4788 39.4865C32.7471 39.2298 33.0621 39.1015 33.4237 39.1015C33.7854 39.1015 34.0998 39.2298 34.367 39.4865C34.6342 39.7432 34.7683 40.0523 34.7695 40.414C34.7707 40.7757 34.6365 41.079 34.367 41.324C34.0975 41.569 33.7825 41.6915 33.422 41.6915M42.578 41.6915C42.2163 41.6915 41.9013 41.569 41.633 41.324C41.3647 41.079 41.2305 40.7757 41.2305 40.414C41.2305 40.0523 41.3647 39.7432 41.633 39.4865C41.9013 39.2298 42.2163 39.1015 42.578 39.1015C42.9397 39.1015 43.2541 39.2298 43.5212 39.4865C43.7884 39.7432 43.9226 40.0523 43.9237 40.414C43.9249 40.7757 43.7907 41.079 43.5212 41.324C43.2517 41.569 42.9368 41.6915 42.5763 41.6915M28.7565 38.9125C28.5978 36.2922 29.4419 34.0586 31.2887 32.2118C33.1344 30.3649 35.4012 29.4415 38.0892 29.4415C40.3479 29.4415 42.3499 30.1199 44.0952 31.4768C45.8406 32.8336 46.9058 34.6157 47.2908 36.823C44.9726 36.7938 42.8213 36.2023 40.8368 35.0485C38.8523 33.8947 37.3297 32.2905 36.2692 30.236C35.8469 32.2555 34.969 34.0253 33.6355 35.5455C32.3008 37.0657 30.6745 38.188 28.7565 38.9125Z" fill="white"/>
</svg>
