<svg width="72" height="72" viewBox="0 0 72 72" fill="none" xmlns="http://www.w3.org/2000/svg">
<rect width="72" height="72" rx="8" fill="#41F548"/>
<g clip-path="url(#clip0_263_1189)">
<path d="M22.8581 54.2906H15.8731C15.6416 54.2906 15.4195 54.1986 15.2557 54.0348C15.092 53.8711 15 53.649 15 53.4174V41.1937C15 40.9621 15.092 40.74 15.2557 40.5763C15.4195 40.4125 15.6416 40.3206 15.8731 40.3206H22.8581C23.0897 40.3206 23.3118 40.4125 23.4755 40.5763C23.6393 40.74 23.7312 40.9621 23.7312 41.1937V53.4174C23.7312 53.649 23.6393 53.8711 23.4755 54.0348C23.3118 54.1986 23.0897 54.2906 22.8581 54.2906ZM16.7462 52.5443H21.985V42.0668H16.7462V52.5443Z" fill="white"/>
<path d="M38.5744 56.91H38.3823L22.666 53.4175L23.0502 51.6712L38.4783 55.1637L55.1637 47.6112V45.7689L43.9965 48.1787L43.6297 46.4325L55.8535 43.8131C55.9824 43.7854 56.116 43.7872 56.2441 43.8185C56.3722 43.8498 56.4916 43.9097 56.5933 43.9937C56.695 44.0777 56.7763 44.1837 56.8311 44.3036C56.886 44.4236 56.9129 44.5544 56.91 44.6862V48.1787C56.9096 48.3467 56.8608 48.511 56.7695 48.6519C56.6781 48.7928 56.548 48.9044 56.3948 48.9733L38.9323 56.8314C38.8199 56.8826 38.6979 56.9094 38.5744 56.91Z" fill="white"/>
<path d="M35.9549 51.6712C35.8379 51.671 35.7221 51.6472 35.6144 51.6014L29.5025 48.982L30.1836 47.3754L36.0422 49.925L42.9399 48.3533V46.4325H36.8281C36.6569 46.4311 36.4899 46.3795 36.3478 46.284L31.3274 42.94H22.8581V41.1937H31.5893C31.7605 41.195 31.9275 41.2467 32.0695 41.3421L37.09 44.6862H43.8131C44.0446 44.6862 44.2667 44.7782 44.4304 44.9419C44.5942 45.1057 44.6862 45.3278 44.6862 45.5593V49.0518C44.6911 49.2537 44.6259 49.451 44.5018 49.6102C44.3776 49.7694 44.2021 49.8806 44.0051 49.925L36.147 51.6712H35.9549ZM18.4924 49.0518H20.2387V50.7981H18.4924V49.0518ZM51.9331 43.4376L50.7107 42.1891C52.4584 40.476 53.7554 38.3574 54.4863 36.0218C55.2172 33.6862 55.3592 31.2061 54.8998 28.8024C54.4403 26.3986 53.3937 24.1458 51.853 22.2444C50.3123 20.343 48.3254 18.852 46.0691 17.9042C43.8128 16.9564 41.3572 16.5812 38.9208 16.812C36.4845 17.0428 34.143 17.8724 32.1048 19.2269C30.0666 20.5815 28.395 22.419 27.2387 24.5759C26.0824 26.7328 25.4774 29.1421 25.4774 31.5893C25.4758 34.1637 26.1438 36.6942 27.4158 38.9323L25.9053 39.8054C24.3708 37.1126 23.6214 34.0438 23.742 30.9469C23.8625 27.8499 24.8482 24.8487 26.5874 22.2833C28.3265 19.718 30.7495 17.6911 33.5817 16.4324C36.4139 15.1738 39.5421 14.7337 42.6116 15.162C45.6812 15.5904 48.5694 16.8701 50.9488 18.856C53.3282 20.8419 55.1037 23.4547 56.0741 26.3982C57.0445 29.3417 57.1709 32.4981 56.439 35.5098C55.7071 38.5214 54.1461 41.2678 51.9331 43.4376Z" fill="white"/>
<path d="M40.3206 35.0818C39.6299 35.0818 38.9546 34.877 38.3803 34.4932C37.806 34.1095 37.3583 33.564 37.094 32.9258C36.8296 32.2877 36.7605 31.5854 36.8952 30.908C37.03 30.2305 37.3626 29.6082 37.8511 29.1197C38.3395 28.6313 38.9618 28.2987 39.6393 28.1639C40.3168 28.0292 41.019 28.0983 41.6571 28.3627C42.2953 28.627 42.8408 29.0746 43.2245 29.649C43.6083 30.2233 43.8131 30.8986 43.8131 31.5893C43.8131 32.5156 43.4452 33.4039 42.7902 34.0589C42.1352 34.7138 41.2469 35.0818 40.3206 35.0818ZM40.3206 29.8431C39.9753 29.8431 39.6376 29.9455 39.3505 30.1374C39.0633 30.3292 38.8395 30.602 38.7073 30.921C38.5751 31.2401 38.5406 31.5912 38.6079 31.93C38.6753 32.2687 38.8416 32.5799 39.0858 32.8241C39.3301 33.0683 39.6412 33.2346 39.98 33.302C40.3187 33.3694 40.6698 33.3348 40.9889 33.2026C41.308 33.0705 41.5807 32.8466 41.7726 32.5595C41.9645 32.2723 42.0669 31.9347 42.0669 31.5893C42.0669 31.1262 41.8829 30.682 41.5554 30.3545C41.2279 30.027 40.7838 29.8431 40.3206 29.8431Z" fill="white"/>
<path d="M32.6101 21.5946L34.0631 20.626L39.594 28.9224L38.1411 29.8911L32.6101 21.5946Z" fill="white"/>
<path d="M42.1816 29.5546L47.7525 26.4577L48.601 27.9839L43.0301 31.0808L42.1816 29.5546Z" fill="white"/>
<path d="M50.7982 30.7162H52.5444V32.4625H50.7982V30.7162ZM28.0969 30.7162H29.8432V32.4625H28.0969V30.7162ZM39.4475 19.3656H41.1938V21.1119H39.4475V19.3656ZM39.4475 42.0669H41.1938V43.8131H39.4475V42.0669Z" fill="white"/>
</g>
<defs>
<clipPath id="clip0_263_1189">
<rect width="41.91" height="41.91" fill="white" transform="translate(15 15)"/>
</clipPath>
</defs>
</svg>
