<svg width="72" height="72" viewBox="0 0 72 72" fill="none" xmlns="http://www.w3.org/2000/svg">
<rect width="72" height="72" rx="8" fill="#F5B841"/>
<path d="M47.3021 41.2311L47.3012 41.2325C46.2286 43.0227 44.7332 44.5219 42.947 45.5991H29.8543C28.0021 44.4756 26.4659 42.8984 25.3914 41.0157C24.2971 39.0983 23.7192 36.9296 23.7144 34.7218L23.7144 34.7216C23.7102 33.0537 24.0358 31.4013 24.6724 29.8596C25.3091 28.3179 26.2442 26.9172 27.424 25.7381C28.6038 24.559 30.0051 23.6248 31.5472 22.9891C33.0896 22.3533 34.734 22.0289 36.4016 22.0341L36.4056 22.0341C38.6535 22.0231 40.8636 22.611 42.8089 23.7372C44.7543 24.8635 46.3645 26.4876 47.4741 28.4425C48.5837 30.3974 49.1527 32.6125 49.1224 34.8601C49.0922 37.1078 48.4639 39.3068 47.3021 41.2311ZM42.6124 47.4767V48.7732H30.2022V47.4767H42.6124ZM42.6124 50.6508V53.2647C42.611 53.3636 42.5709 53.458 42.5006 53.5277C42.4299 53.5977 42.3344 53.637 42.2348 53.637H30.5798C30.4802 53.637 30.3847 53.5977 30.314 53.5276C30.2437 53.458 30.2036 53.3636 30.2022 53.2648V50.6508H42.6124Z" stroke="white"/>
<path d="M40.7584 53.7353C40.7584 53.5047 40.6668 53.2836 40.5037 53.1205C40.3407 52.9575 40.1195 52.8659 39.889 52.8659C36.6984 52.8659 36.8214 52.9643 32.9665 52.7838C32.8523 52.7783 32.7381 52.7954 32.6305 52.8341C32.5229 52.8727 32.424 52.9323 32.3394 53.0092C32.2549 53.0861 32.1863 53.179 32.1377 53.2825C32.0891 53.386 32.0613 53.498 32.0561 53.6123L32.0479 53.7271C32.0479 54.6785 32.5892 55.5069 33.4586 56.0893C34.2296 56.5978 35.263 56.9095 36.4113 56.9095C37.4486 56.9244 38.4682 56.6396 39.3476 56.0893C40.217 55.5151 40.7584 54.6867 40.7584 53.7353Z" fill="#FFFFFE"/>
<path d="M35.5339 18.5651C35.555 18.7822 35.6561 18.9837 35.8176 19.1302C35.9791 19.2768 36.1894 19.358 36.4074 19.358C36.6255 19.358 36.8358 19.2768 36.9973 19.1302C37.1588 18.9837 37.2599 18.7822 37.281 18.5651V15.7929C37.2599 15.5758 37.1588 15.3744 36.9973 15.2278C36.8358 15.0812 36.6255 15 36.4074 15C36.1894 15 35.9791 15.0812 35.8176 15.2278C35.6561 15.3744 35.555 15.5758 35.5339 15.7929V18.5651Z" fill="#FFFFFE"/>
<path d="M20.5651 35.2807C20.7822 35.2597 20.9837 35.1585 21.1302 34.997C21.2768 34.8356 21.358 34.6253 21.358 34.4072C21.358 34.1891 21.2768 33.9788 21.1302 33.8174C20.9837 33.6559 20.7822 33.5547 20.5651 33.5337H17.7929C17.5758 33.5547 17.3744 33.6559 17.2278 33.8174C17.0812 33.9788 17 34.1891 17 34.4072C17 34.6253 17.0812 34.8356 17.2278 34.997C17.3744 35.1585 17.5758 35.2597 17.7929 35.2807H20.5651Z" fill="#FFFFFE"/>
<path d="M55.0217 35.2807C55.2388 35.2597 55.4402 35.1585 55.5868 34.997C55.7334 34.8356 55.8146 34.6253 55.8146 34.4072C55.8146 34.1891 55.7334 33.9788 55.5868 33.8174C55.4402 33.6559 55.2388 33.5547 55.0217 33.5337H52.2494C52.0323 33.5547 51.8309 33.6559 51.6843 33.8174C51.5377 33.9788 51.4565 34.1891 51.4565 34.4072C51.4565 34.6253 51.5377 34.8356 51.6843 34.997C51.8309 35.1585 52.0323 35.2597 52.2494 35.2807H55.0217Z" fill="#FFFFFE"/>
<path d="M24.5838 23.8307C24.7522 23.9767 24.97 24.0531 25.1927 24.0444C25.4155 24.0357 25.6265 23.9426 25.7831 23.7839C25.9397 23.6252 26.03 23.4129 26.0358 23.1901C26.0415 22.9672 25.9623 22.7505 25.8141 22.584L23.862 20.6237C23.6945 20.4767 23.4773 20.399 23.2546 20.4062C23.0318 20.4135 22.8202 20.5052 22.6626 20.6628C22.505 20.8204 22.4132 21.032 22.406 21.2548C22.3987 21.4776 22.4765 21.6947 22.6235 21.8622L24.5838 23.8307Z" fill="#FFFFFE"/>
<path d="M48.9522 48.1908C49.1211 48.3201 49.3312 48.3836 49.5435 48.3695C49.7557 48.3555 49.9557 48.2648 50.1061 48.1144C50.2565 47.964 50.3472 47.7641 50.3612 47.5518C50.3753 47.3396 50.3117 47.1294 50.1825 46.9605L48.2304 44.992C48.0629 44.845 47.8457 44.7673 47.623 44.7745C47.4002 44.7818 47.1886 44.8735 47.031 45.0311C46.8734 45.1887 46.7816 45.4003 46.7744 45.6231C46.7671 45.8458 46.8449 46.063 46.9919 46.2305L48.9522 48.1908Z" fill="#FFFFFE"/>
<path d="M46.9922 22.584C46.855 22.7521 46.7849 22.965 46.7955 23.1817C46.8061 23.3984 46.8965 23.6035 47.0494 23.7575C47.2023 23.9114 47.4068 24.0032 47.6235 24.0152C47.8401 24.0272 48.0535 23.9586 48.2225 23.8225L50.1909 21.8622C50.327 21.6933 50.3957 21.4799 50.3837 21.2632C50.3716 21.0466 50.2798 20.8421 50.1259 20.6892C49.972 20.5363 49.7669 20.4458 49.5502 20.4352C49.3335 20.4247 49.1205 20.4947 48.9524 20.6319L46.9922 22.584Z" fill="#FFFFFE"/>
<path d="M22.624 46.9605C22.4947 47.1294 22.4312 47.3396 22.4453 47.5518C22.4593 47.7641 22.55 47.964 22.7004 48.1144C22.8508 48.2648 23.0507 48.3555 23.263 48.3695C23.4752 48.3836 23.6854 48.3201 23.8543 48.1908L25.8228 46.2305C25.9589 46.0615 26.0275 45.8481 26.0155 45.6315C26.0035 45.4149 25.9117 45.2104 25.7577 45.0575C25.6038 44.9046 25.3987 44.8141 25.182 44.8035C24.9653 44.793 24.7524 44.863 24.5843 45.0002L22.624 46.9523V46.9605Z" fill="#FFFFFE"/>
</svg>
