<svg width="25" height="24" viewBox="0 0 25 24" fill="none" xmlns="http://www.w3.org/2000/svg">
<path d="M12.5036 0C7.49411 0 6.0288 0.00515625 5.7438 0.0285937C4.71583 0.114375 4.07599 0.276094 3.37896 0.623437C2.84177 0.890156 2.41802 1.19953 2.00036 1.63312C1.23865 2.42344 0.777396 3.39609 0.610521 4.55203C0.529427 5.11312 0.505521 5.22797 0.500833 8.09484C0.498958 9.05062 0.500833 10.3083 0.500833 11.9953C0.500833 17.0025 0.506458 18.4664 0.530365 18.7509C0.613333 19.7517 0.770365 20.3812 1.10271 21.0698C1.73786 22.388 2.95052 23.3775 4.3788 23.7469C4.87333 23.8744 5.4199 23.9442 6.12114 23.9775C6.41833 23.9906 9.44739 23.9995 12.4783 23.9995C15.5093 23.9995 18.5397 23.9958 18.8299 23.9812C19.6422 23.9428 20.1138 23.8795 20.635 23.745C22.0727 23.3737 23.2633 22.3992 23.9111 21.0623C24.2369 20.3902 24.4019 19.7367 24.4769 18.7884C24.4933 18.5817 24.4999 15.2845 24.4999 11.992C24.4999 8.69906 24.4924 5.40797 24.4765 5.20125C24.401 4.2375 24.2355 3.58922 23.8994 2.90437C23.6233 2.34375 23.3172 1.92469 22.8724 1.49672C22.0783 0.738281 21.1075 0.276562 19.9507 0.109687C19.3896 0.0290625 19.278 0.00515625 16.4097 0H12.5036Z" fill="white"/>
<path d="M12.5036 0C7.49411 0 6.0288 0.00515625 5.7438 0.0285937C4.71583 0.114375 4.07599 0.276094 3.37896 0.623437C2.84177 0.890156 2.41802 1.19953 2.00036 1.63312C1.23865 2.42344 0.777396 3.39609 0.610521 4.55203C0.529427 5.11312 0.505521 5.22797 0.500833 8.09484C0.498958 9.05062 0.500833 10.3083 0.500833 11.9953C0.500833 17.0025 0.506458 18.4664 0.530365 18.7509C0.613333 19.7517 0.770365 20.3812 1.10271 21.0698C1.73786 22.388 2.95052 23.3775 4.3788 23.7469C4.87333 23.8744 5.4199 23.9442 6.12114 23.9775C6.41833 23.9906 9.44739 23.9995 12.4783 23.9995C15.5093 23.9995 18.5397 23.9958 18.8299 23.9812C19.6422 23.9428 20.1138 23.8795 20.635 23.745C22.0727 23.3737 23.2633 22.3992 23.9111 21.0623C24.2369 20.3902 24.4019 19.7367 24.4769 18.7884C24.4933 18.5817 24.4999 15.2845 24.4999 11.992C24.4999 8.69906 24.4924 5.40797 24.4765 5.20125C24.401 4.2375 24.2355 3.58922 23.8994 2.90437C23.6233 2.34375 23.3172 1.92469 22.8724 1.49672C22.0783 0.738281 21.1075 0.276562 19.9507 0.109687C19.3896 0.0290625 19.278 0.00515625 16.4097 0H12.5036Z" fill="white"/>
<path d="M12.5036 0C7.49411 0 6.0288 0.00515625 5.7438 0.0285937C4.71583 0.114375 4.07599 0.276094 3.37896 0.623437C2.84177 0.890156 2.41802 1.19953 2.00036 1.63312C1.23865 2.42344 0.777396 3.39609 0.610521 4.55203C0.529427 5.11312 0.505521 5.22797 0.500833 8.09484C0.498958 9.05062 0.500833 10.3083 0.500833 11.9953C0.500833 17.0025 0.506458 18.4664 0.530365 18.7509C0.613333 19.7517 0.770365 20.3812 1.10271 21.0698C1.73786 22.388 2.95052 23.3775 4.3788 23.7469C4.87333 23.8744 5.4199 23.9442 6.12114 23.9775C6.41833 23.9906 9.44739 23.9995 12.4783 23.9995C15.5093 23.9995 18.5397 23.9958 18.8299 23.9812C19.6422 23.9428 20.1138 23.8795 20.635 23.745C22.0727 23.3737 23.2633 22.3992 23.9111 21.0623C24.2369 20.3902 24.4019 19.7367 24.4769 18.7884C24.4933 18.5817 24.4999 15.2845 24.4999 11.992C24.4999 8.69906 24.4924 5.40797 24.4765 5.20125C24.401 4.2375 24.2355 3.58922 23.8994 2.90437C23.6233 2.34375 23.3172 1.92469 22.8724 1.49672C22.0783 0.738281 21.1075 0.276562 19.9507 0.109687C19.3896 0.0290625 19.278 0.00515625 16.4097 0H12.5036Z" fill="white"/>
<path d="M12.5036 0C7.49411 0 6.0288 0.00515625 5.7438 0.0285937C4.71583 0.114375 4.07599 0.276094 3.37896 0.623437C2.84177 0.890156 2.41802 1.19953 2.00036 1.63312C1.23865 2.42344 0.777396 3.39609 0.610521 4.55203C0.529427 5.11312 0.505521 5.22797 0.500833 8.09484C0.498958 9.05062 0.500833 10.3083 0.500833 11.9953C0.500833 17.0025 0.506458 18.4664 0.530365 18.7509C0.613333 19.7517 0.770365 20.3812 1.10271 21.0698C1.73786 22.388 2.95052 23.3775 4.3788 23.7469C4.87333 23.8744 5.41989 23.9442 6.12114 23.9775C6.41833 23.9906 9.44739 23.9995 12.4783 23.9995C15.5093 23.9995 18.5397 23.9958 18.8299 23.9812C19.6422 23.9428 20.1138 23.8795 20.635 23.745C22.0727 23.3737 23.2633 22.3992 23.9111 21.0623C24.2369 20.3902 24.4019 19.7367 24.4769 18.7884C24.4933 18.5817 24.4999 15.2845 24.4999 11.992C24.4999 8.69906 24.4924 5.40797 24.4765 5.20125C24.401 4.2375 24.2355 3.58922 23.8994 2.90437C23.6233 2.34375 23.3172 1.92469 22.8724 1.49672C22.0783 0.738281 21.1075 0.276562 19.9507 0.109687C19.3896 0.0290625 19.278 0.00515625 16.4097 0H12.5036Z" fill="white"/>
<path d="M12.5046 3.08203C10.0812 3.08203 9.77699 3.09281 8.82543 3.13594C7.87527 3.17953 7.22699 3.32953 6.6598 3.55031C6.07293 3.77813 5.57512 4.08281 5.07918 4.57828C4.58277 5.07375 4.27809 5.57156 4.04934 6.1575C3.82809 6.72469 3.67762 7.37297 3.63496 8.32172C3.5923 9.27281 3.58105 9.57703 3.58105 11.9986C3.58105 14.4202 3.59184 14.7234 3.63496 15.6745C3.67855 16.6238 3.82902 17.2716 4.04934 17.8388C4.27762 18.4252 4.5823 18.9225 5.07871 19.4184C5.57465 19.9144 6.07246 20.22 6.65887 20.4478C7.22652 20.6681 7.87527 20.8186 8.82496 20.8622C9.77699 20.9053 10.0807 20.9161 12.5042 20.9161C14.9276 20.9161 15.2309 20.9053 16.1829 20.8622C17.1331 20.8186 17.7823 20.6686 18.35 20.4478C18.9368 20.22 19.4337 19.9148 19.9296 19.4189C20.4261 18.9234 20.7307 18.4256 20.9595 17.8397C21.1789 17.2725 21.3293 16.6242 21.3739 15.6755C21.4165 14.7244 21.4278 14.4211 21.4278 11.9995C21.4278 9.57797 21.4165 9.27375 21.3739 8.32266C21.3293 7.37344 21.1789 6.72563 20.9595 6.15844C20.7307 5.57203 20.4261 5.07469 19.9296 4.57875C19.4332 4.08281 18.9368 3.77813 18.3495 3.55031C17.7804 3.33 17.1317 3.17953 16.182 3.13594C15.23 3.09281 14.9271 3.08203 12.5028 3.08203H12.5046ZM11.7045 4.68891C11.9421 4.68844 12.207 4.68891 12.5051 4.68891C14.8878 4.68891 15.17 4.69734 16.1107 4.74C16.9807 4.77984 17.4528 4.92516 17.7673 5.04703C18.1836 5.20875 18.4807 5.40188 18.7929 5.71406C19.1051 6.02625 19.2987 6.32344 19.4609 6.73969C19.5832 7.05375 19.7286 7.52531 19.7684 8.39484C19.8111 9.33469 19.8204 9.61734 19.8204 11.9967C19.8204 14.3766 19.8111 14.6588 19.7684 15.5986C19.7286 16.4681 19.5832 16.9397 19.4609 17.2538C19.2992 17.67 19.1056 17.9663 18.7929 18.278C18.4807 18.5902 18.184 18.7833 17.7673 18.945C17.4532 19.0678 16.9807 19.2127 16.1107 19.252C15.17 19.2947 14.8873 19.3041 12.5051 19.3041C10.1225 19.3041 9.8398 19.2947 8.89949 19.252C8.02949 19.2117 7.55746 19.0669 7.24246 18.9445C6.82621 18.7828 6.52855 18.5897 6.21637 18.2775C5.90418 17.9653 5.71059 17.6691 5.5484 17.2528C5.42605 16.9388 5.28074 16.4672 5.2409 15.5977C5.19824 14.6578 5.1898 14.3752 5.1898 11.9944C5.1898 9.61313 5.19824 9.33234 5.2409 8.3925C5.28074 7.52297 5.42605 7.05141 5.5484 6.73688C5.71012 6.32063 5.90371 6.02344 6.21637 5.71125C6.52855 5.39906 6.82621 5.20594 7.24246 5.04375C7.55699 4.92094 8.02949 4.77609 8.89949 4.73625C9.72262 4.69922 10.0418 4.68797 11.705 4.68609L11.7045 4.68891ZM17.2681 6.16969C16.677 6.16969 16.1975 6.64828 16.1975 7.23938C16.1975 7.83 16.677 8.30953 17.2681 8.30953C17.8592 8.30953 18.3387 7.83047 18.3387 7.23938C18.3387 6.64828 17.8592 6.16922 17.2681 6.16969ZM12.5046 7.41984C9.97387 7.41984 7.92215 9.47016 7.92215 11.9991C7.92215 14.528 9.97387 16.5773 12.5046 16.5773C15.0354 16.5773 17.0862 14.528 17.0862 11.9991C17.0862 9.47016 15.0354 7.41984 12.5046 7.41984ZM12.5046 9.02672C14.1471 9.02672 15.4793 10.3575 15.4793 11.9991C15.4793 13.6406 14.1476 14.9714 12.5046 14.9714C10.8617 14.9714 9.52996 13.6406 9.52996 11.9991C9.53043 10.357 10.8621 9.02672 12.5046 9.02672Z" fill="#0F243D"/>
</svg>
