<svg width="24" height="25" viewBox="0 0 24 25" fill="none" xmlns="http://www.w3.org/2000/svg">
<path d="M12.0039 0.5C6.99436 0.5 5.52905 0.505156 5.24405 0.528594C4.21608 0.614375 3.57623 0.776094 2.8792 1.12344C2.34201 1.39016 1.91826 1.69953 1.50061 2.13312C0.73889 2.92344 0.27764 3.89609 0.110765 5.05203C0.0296712 5.61312 0.00576497 5.72797 0.00107747 8.59484C-0.000797526 9.55062 0.00107747 10.8083 0.00107747 12.4953C0.00107747 17.5025 0.00670247 18.9664 0.0306087 19.2509C0.113577 20.2517 0.270609 20.8812 0.602952 21.5698C1.23811 22.888 2.45076 23.8775 3.87905 24.2469C4.37358 24.3744 4.92014 24.4442 5.62139 24.4775C5.91858 24.4906 8.94764 24.4995 11.9786 24.4995C15.0095 24.4995 18.04 24.4958 18.3301 24.4812C19.1425 24.4428 19.614 24.3795 20.1353 24.245C21.5729 23.8737 22.7636 22.8992 23.4114 21.5623C23.7372 20.8902 23.9022 20.2367 23.9772 19.2884C23.9936 19.0817 24.0001 15.7845 24.0001 12.492C24.0001 9.19906 23.9926 5.90797 23.9767 5.70125C23.9012 4.7375 23.7358 4.08922 23.3997 3.40437C23.1236 2.84375 22.8175 2.42469 22.3726 1.99672C21.5786 1.23828 20.6078 0.776562 19.4509 0.609687C18.8898 0.529062 18.7783 0.505156 15.91 0.5H12.0039Z" fill="#0F243D" fill-opacity="0.8"/>
<path d="M12.0039 0.5C6.99436 0.5 5.52905 0.505156 5.24405 0.528594C4.21608 0.614375 3.57623 0.776094 2.8792 1.12344C2.34201 1.39016 1.91826 1.69953 1.50061 2.13312C0.73889 2.92344 0.27764 3.89609 0.110765 5.05203C0.0296712 5.61312 0.00576497 5.72797 0.00107747 8.59484C-0.000797526 9.55062 0.00107747 10.8083 0.00107747 12.4953C0.00107747 17.5025 0.00670247 18.9664 0.0306087 19.2509C0.113577 20.2517 0.270609 20.8812 0.602952 21.5698C1.23811 22.888 2.45076 23.8775 3.87905 24.2469C4.37358 24.3744 4.92014 24.4442 5.62139 24.4775C5.91858 24.4906 8.94764 24.4995 11.9786 24.4995C15.0095 24.4995 18.04 24.4958 18.3301 24.4812C19.1425 24.4428 19.614 24.3795 20.1353 24.245C21.5729 23.8737 22.7636 22.8992 23.4114 21.5623C23.7372 20.8902 23.9022 20.2367 23.9772 19.2884C23.9936 19.0817 24.0001 15.7845 24.0001 12.492C24.0001 9.19906 23.9926 5.90797 23.9767 5.70125C23.9012 4.7375 23.7358 4.08922 23.3997 3.40437C23.1236 2.84375 22.8175 2.42469 22.3726 1.99672C21.5786 1.23828 20.6078 0.776562 19.4509 0.609687C18.8898 0.529062 18.7783 0.505156 15.91 0.5H12.0039Z" fill="#0F243D" fill-opacity="0.8"/>
<path d="M12.0039 0.5C6.99436 0.5 5.52905 0.505156 5.24405 0.528594C4.21608 0.614375 3.57623 0.776094 2.8792 1.12344C2.34201 1.39016 1.91826 1.69953 1.50061 2.13312C0.73889 2.92344 0.27764 3.89609 0.110765 5.05203C0.0296712 5.61312 0.00576497 5.72797 0.00107747 8.59484C-0.000797526 9.55062 0.00107747 10.8083 0.00107747 12.4953C0.00107747 17.5025 0.00670247 18.9664 0.0306087 19.2509C0.113577 20.2517 0.270609 20.8812 0.602952 21.5698C1.23811 22.888 2.45076 23.8775 3.87905 24.2469C4.37358 24.3744 4.92014 24.4442 5.62139 24.4775C5.91858 24.4906 8.94764 24.4995 11.9786 24.4995C15.0095 24.4995 18.04 24.4958 18.3301 24.4812C19.1425 24.4428 19.614 24.3795 20.1353 24.245C21.5729 23.8737 22.7636 22.8992 23.4114 21.5623C23.7372 20.8902 23.9022 20.2367 23.9772 19.2884C23.9936 19.0817 24.0001 15.7845 24.0001 12.492C24.0001 9.19906 23.9926 5.90797 23.9767 5.70125C23.9012 4.7375 23.7358 4.08922 23.3997 3.40437C23.1236 2.84375 22.8175 2.42469 22.3726 1.99672C21.5786 1.23828 20.6078 0.776562 19.4509 0.609687C18.8898 0.529062 18.7783 0.505156 15.91 0.5H12.0039Z" fill="#0F243D" fill-opacity="0.8"/>
<path d="M12.0039 0.5C6.99436 0.5 5.52905 0.505156 5.24405 0.528594C4.21608 0.614375 3.57623 0.776094 2.8792 1.12344C2.34201 1.39016 1.91826 1.69953 1.50061 2.13312C0.73889 2.92344 0.27764 3.89609 0.110765 5.05203C0.0296712 5.61312 0.00576497 5.72797 0.00107747 8.59484C-0.000797526 9.55062 0.00107747 10.8083 0.00107747 12.4953C0.00107747 17.5025 0.00670247 18.9664 0.0306087 19.2509C0.113577 20.2517 0.270609 20.8812 0.602952 21.5698C1.23811 22.888 2.45076 23.8775 3.87905 24.2469C4.37358 24.3744 4.92014 24.4442 5.62139 24.4775C5.91858 24.4906 8.94764 24.4995 11.9786 24.4995C15.0095 24.4995 18.04 24.4958 18.3301 24.4812C19.1425 24.4428 19.614 24.3795 20.1353 24.245C21.5729 23.8737 22.7636 22.8992 23.4114 21.5623C23.7372 20.8902 23.9022 20.2367 23.9772 19.2884C23.9936 19.0817 24.0001 15.7845 24.0001 12.492C24.0001 9.19906 23.9926 5.90797 23.9767 5.70125C23.9012 4.7375 23.7358 4.08922 23.3997 3.40437C23.1236 2.84375 22.8175 2.42469 22.3726 1.99672C21.5786 1.23828 20.6078 0.776562 19.4509 0.609687C18.8898 0.529062 18.7783 0.505156 15.91 0.5H12.0039Z" fill="#0F243D" fill-opacity="0.8"/>
<path d="M12.0046 3.58203C9.58121 3.58203 9.27699 3.59281 8.32543 3.63594C7.37527 3.67953 6.72699 3.82953 6.1598 4.05031C5.57293 4.27813 5.07512 4.58281 4.57918 5.07828C4.08277 5.57375 3.77809 6.07156 3.54934 6.6575C3.32809 7.22469 3.17762 7.87297 3.13496 8.82172C3.0923 9.77281 3.08105 10.077 3.08105 12.4986C3.08105 14.9202 3.09184 15.2234 3.13496 16.1745C3.17855 17.1238 3.32902 17.7716 3.54934 18.3388C3.77762 18.9252 4.0823 19.4225 4.57871 19.9184C5.07465 20.4144 5.57246 20.72 6.15887 20.9478C6.72652 21.1681 7.37527 21.3186 8.32496 21.3622C9.27699 21.4053 9.58074 21.4161 12.0042 21.4161C14.4276 21.4161 14.7309 21.4053 15.6829 21.3622C16.6331 21.3186 17.2823 21.1686 17.85 20.9478C18.4368 20.72 18.9337 20.4148 19.4296 19.9189C19.9261 19.4234 20.2307 18.9256 20.4595 18.3397C20.6789 17.7725 20.8293 17.1242 20.8739 16.1755C20.9165 15.2244 20.9278 14.9211 20.9278 12.4995C20.9278 10.078 20.9165 9.77375 20.8739 8.82266C20.8293 7.87344 20.6789 7.22563 20.4595 6.65844C20.2307 6.07203 19.9261 5.57469 19.4296 5.07875C18.9332 4.58281 18.4368 4.27813 17.8495 4.05031C17.2804 3.83 16.6317 3.67953 15.682 3.63594C14.73 3.59281 14.4271 3.58203 12.0028 3.58203H12.0046ZM11.2045 5.18891C11.4421 5.18844 11.707 5.18891 12.0051 5.18891C14.3878 5.18891 14.67 5.19734 15.6107 5.24C16.4807 5.27984 16.9528 5.42516 17.2673 5.54703C17.6836 5.70875 17.9807 5.90188 18.2929 6.21406C18.6051 6.52625 18.7987 6.82344 18.9609 7.23969C19.0832 7.55375 19.2286 8.02531 19.2684 8.89484C19.3111 9.83469 19.3204 10.1173 19.3204 12.4967C19.3204 14.8766 19.3111 15.1588 19.2684 16.0986C19.2286 16.9681 19.0832 17.4397 18.9609 17.7538C18.7992 18.17 18.6056 18.4663 18.2929 18.778C17.9807 19.0902 17.684 19.2833 17.2673 19.445C16.9532 19.5678 16.4807 19.7127 15.6107 19.752C14.67 19.7947 14.3873 19.8041 12.0051 19.8041C9.62246 19.8041 9.3398 19.7947 8.39949 19.752C7.52949 19.7117 7.05746 19.5669 6.74246 19.4445C6.32621 19.2828 6.02855 19.0897 5.71637 18.7775C5.40418 18.4653 5.21059 18.1691 5.0484 17.7528C4.92605 17.4388 4.78074 16.9672 4.7409 16.0977C4.69824 15.1578 4.6898 14.8752 4.6898 12.4944C4.6898 10.1131 4.69824 9.83234 4.7409 8.8925C4.78074 8.02297 4.92605 7.55141 5.0484 7.23688C5.21012 6.82063 5.40371 6.52344 5.71637 6.21125C6.02855 5.89906 6.32621 5.70594 6.74246 5.54375C7.05699 5.42094 7.52949 5.27609 8.39949 5.23625C9.22262 5.19922 9.54184 5.18797 11.205 5.18609L11.2045 5.18891ZM16.7681 6.66969C16.177 6.66969 15.6975 7.14828 15.6975 7.73938C15.6975 8.33 16.177 8.80953 16.7681 8.80953C17.3592 8.80953 17.8387 8.33047 17.8387 7.73938C17.8387 7.14828 17.3592 6.66922 16.7681 6.66969ZM12.0046 7.91984C9.47387 7.91984 7.42215 9.97016 7.42215 12.4991C7.42215 15.028 9.47387 17.0773 12.0046 17.0773C14.5354 17.0773 16.5862 15.028 16.5862 12.4991C16.5862 9.97016 14.5354 7.91984 12.0046 7.91984ZM12.0046 9.52672C13.6471 9.52672 14.9793 10.8575 14.9793 12.4991C14.9793 14.1406 13.6476 15.4714 12.0046 15.4714C10.3617 15.4714 9.02996 14.1406 9.02996 12.4991C9.03043 10.857 10.3621 9.52672 12.0046 9.52672Z" fill="#EBEBEB"/>
</svg>
