<svg width="49" height="32" viewBox="0 0 49 32" fill="none" xmlns="http://www.w3.org/2000/svg">
<g clip-path="url(#clip0_514_2042)">
<path d="M17.2446 3.42871H31.8397V28.6309H17.2446V3.42871Z" fill="#FF5F00"/>
<path d="M18.7171 16.0295C18.7176 13.6051 19.2362 11.2121 20.234 9.02992C21.2319 6.84771 22.6832 4.93275 24.4792 3.42845C22.2456 1.56933 19.563 0.413022 16.738 0.0917208C13.9129 -0.22958 11.0595 0.297088 8.5039 1.61152C5.94827 2.92595 3.79355 4.97511 2.28606 7.52474C0.778565 10.0744 -0.020874 13.0216 -0.020874 16.0295C-0.020874 19.0374 0.778565 21.9847 2.28606 24.5343C3.79355 27.0839 5.94827 29.1331 8.5039 30.4475C11.0595 31.762 13.9129 32.2886 16.738 31.9673C19.563 31.646 22.2456 30.4897 24.4792 28.6306C22.6832 27.1263 21.2319 25.2113 20.234 23.0291C19.2362 20.8469 18.7176 18.454 18.7171 16.0295Z" fill="#EB001B"/>
<path d="M49.001 16.0289C49.003 19.0346 48.206 21.9803 46.7009 24.529C45.1959 27.0777 43.0437 29.1265 40.4904 30.4411C37.9372 31.7557 35.086 32.283 32.2629 31.9627C29.4399 31.6425 26.759 30.4875 24.5269 28.63C26.3233 27.1261 27.7748 25.2112 28.7728 23.0289C29.7707 20.8466 30.2891 18.4535 30.2891 16.0289C30.2891 13.6043 29.7707 11.2112 28.7728 9.02892C27.7748 6.84662 26.3233 4.93175 24.5269 3.42784C26.759 1.57032 29.4399 0.415369 32.2629 0.0950864C35.086 -0.225196 37.9372 0.302119 40.4904 1.61672C43.0437 2.93132 45.1959 4.98014 46.7009 7.52883C48.206 10.0775 49.003 13.0232 49.001 16.0289Z" fill="#F79E1B"/>
</g>
<defs>
<clipPath id="clip0_514_2042">
<rect width="49" height="32" fill="white"/>
</clipPath>
</defs>
</svg>
