<svg width="75" height="80" viewBox="0 0 75 80" fill="none" xmlns="http://www.w3.org/2000/svg">
<path fill-rule="evenodd" clip-rule="evenodd" d="M35.5174 0.00133102C52.7889 -0.153622 66.4033 13.241 71.7894 29.6132C77.2315 46.1557 74.6831 65.5372 60.3401 75.4558C46.722 84.8733 29.1193 78.271 15.9666 68.2167C4.0245 59.0877 -2.93688 44.6775 1.19909 30.2465C5.83827 14.0598 18.6428 0.152722 35.5174 0.00133102Z" fill="#4183F5"/>
<g clip-path="url(#clip0_263_1195)">
<path d="M50.4375 32.125H42.5625C41.5185 32.126 40.5176 32.5412 39.7794 33.2794C39.0412 34.0176 38.626 35.0185 38.625 36.0625V43.9375C38.625 44.6337 38.9016 45.3014 39.3938 45.7937C39.8861 46.2859 40.5538 46.5625 41.25 46.5625V55.75C41.25 56.4462 41.5266 57.1139 42.0188 57.6062C42.5111 58.0984 43.1788 58.375 43.875 58.375H49.125C49.8212 58.375 50.4889 58.0984 50.9812 57.6062C51.4734 57.1139 51.75 56.4462 51.75 55.75V46.5625C52.4462 46.5625 53.1139 46.2859 53.6062 45.7937C54.0984 45.3014 54.375 44.6337 54.375 43.9375V36.0625C54.374 35.0185 53.9588 34.0176 53.2206 33.2794C52.4824 32.5412 51.4815 32.126 50.4375 32.125ZM51.75 43.9375H49.125V55.75H43.875V43.9375H41.25V36.0625C41.25 35.7144 41.3883 35.3806 41.6344 35.1344C41.8806 34.8883 42.2144 34.75 42.5625 34.75H50.4375C50.7856 34.75 51.1194 34.8883 51.3656 35.1344C51.6117 35.3806 51.75 35.7144 51.75 36.0625V43.9375ZM41.25 25.5625C41.25 24.5242 41.5579 23.5091 42.1348 22.6458C42.7117 21.7824 43.5316 21.1095 44.4909 20.7121C45.4502 20.3148 46.5058 20.2108 47.5242 20.4134C48.5426 20.616 49.4781 21.116 50.2123 21.8502C50.9465 22.5844 51.4466 23.5199 51.6491 24.5383C51.8517 25.5567 51.7477 26.6123 51.3504 27.5716C50.953 28.5309 50.2801 29.3508 49.4167 29.9277C48.5534 30.5046 47.5384 30.8125 46.5 30.8125C45.108 30.8111 43.7735 30.2575 42.7892 29.2733C41.805 28.289 41.2514 26.9545 41.25 25.5625ZM43.875 25.5625C43.875 26.0817 44.029 26.5892 44.3174 27.0209C44.6058 27.4526 45.0158 27.789 45.4955 27.9877C45.9751 28.1864 46.5029 28.2384 47.0121 28.1371C47.5213 28.0358 47.989 27.7858 48.3562 27.4187C48.7233 27.0515 48.9733 26.5838 49.0746 26.0746C49.1758 25.5654 49.1239 25.0376 48.9252 24.558C48.7265 24.0783 48.3901 23.6683 47.9584 23.3799C47.5267 23.0915 47.0192 22.9375 46.5 22.9375C45.8038 22.9375 45.1361 23.2141 44.6438 23.7063C44.1516 24.1986 43.875 24.8663 43.875 25.5625ZM33.375 40V36.0625C33.374 35.0185 32.9588 34.0176 32.2206 33.2794C31.4824 32.5412 30.4815 32.126 29.4375 32.125H21.5625C20.5185 32.126 19.5176 32.5412 18.7794 33.2794C18.0412 34.0176 17.626 35.0185 17.625 36.0625V40H15V42.625H36V40H33.375ZM20.25 36.0625C20.25 35.7144 20.3883 35.3806 20.6344 35.1344C20.8806 34.8883 21.2144 34.75 21.5625 34.75H29.4375C29.7856 34.75 30.1194 34.8883 30.3656 35.1344C30.6117 35.3806 30.75 35.7144 30.75 36.0625V40H20.25V36.0625ZM20.25 25.5625C20.25 24.5242 20.5579 23.5091 21.1348 22.6458C21.7117 21.7824 22.5316 21.1095 23.4909 20.7121C24.4502 20.3148 25.5058 20.2108 26.5242 20.4134C27.5426 20.616 28.4781 21.116 29.2123 21.8502C29.9465 22.5844 30.4466 23.5199 30.6491 24.5383C30.8517 25.5567 30.7477 26.6123 30.3504 27.5716C29.953 28.5309 29.2801 29.3508 28.4167 29.9277C27.5534 30.5046 26.5384 30.8125 25.5 30.8125C24.108 30.8111 22.7735 30.2575 21.7892 29.2733C20.805 28.289 20.2514 26.9545 20.25 25.5625ZM22.875 25.5625C22.875 26.0817 23.029 26.5892 23.3174 27.0209C23.6058 27.4526 24.0158 27.789 24.4955 27.9877C24.9751 28.1864 25.5029 28.2384 26.0121 28.1371C26.5213 28.0358 26.989 27.7858 27.3562 27.4187C27.7233 27.0515 27.9733 26.5838 28.0746 26.0746C28.1758 25.5654 28.1239 25.0376 27.9252 24.558C27.7265 24.0783 27.3901 23.6683 26.9584 23.3799C26.5267 23.0915 26.0192 22.9375 25.5 22.9375C24.8038 22.9375 24.1361 23.2141 23.6438 23.7063C23.1516 24.1986 22.875 24.8663 22.875 25.5625Z" fill="white"/>
</g>
<defs>
<clipPath id="clip0_263_1195">
<rect width="42" height="42" fill="white" transform="translate(17 18)"/>
</clipPath>
</defs>
</svg>
