<svg width="75" height="80" viewBox="0 0 75 80" fill="none" xmlns="http://www.w3.org/2000/svg">
<path fill-rule="evenodd" clip-rule="evenodd" d="M35.5174 0.00133102C52.7889 -0.153622 66.4033 13.241 71.7894 29.6132C77.2315 46.1557 74.6831 65.5372 60.3401 75.4558C46.722 84.8733 29.1193 78.271 15.9666 68.2167C4.0245 59.0877 -2.93688 44.6775 1.19909 30.2465C5.83827 14.0598 18.6428 0.152722 35.5174 0.00133102Z" fill="#5BF542"/>
<path d="M38 56.5L34.5 46H20.5L24 56.5H38ZM38 56.5H45M38 40.75V39.875C38 36.5745 38 34.926 36.9745 33.9005C35.949 32.875 34.3005 32.875 31 32.875C27.6995 32.875 26.051 32.875 25.0255 33.9005C24 34.926 24 36.5745 24 39.875V40.75M41.5 48.625H52C52.9283 48.625 53.8185 48.9937 54.4749 49.6501C55.1313 50.3065 55.5 51.1967 55.5 52.125V53C55.5 53.9283 55.1313 54.8185 54.4749 55.4749C53.8185 56.1313 52.9283 56.5 52 56.5H50.25M50.25 40.75C50.25 41.6783 49.8813 42.5685 49.2249 43.2249C48.5685 43.8813 47.6783 44.25 46.75 44.25C45.8217 44.25 44.9315 43.8813 44.2751 43.2249C43.6187 42.5685 43.25 41.6783 43.25 40.75C43.25 39.8217 43.6187 38.9315 44.2751 38.2751C44.9315 37.6187 45.8217 37.25 46.75 37.25C47.6783 37.25 48.5685 37.6187 49.2249 38.2751C49.8813 38.9315 50.25 39.8217 50.25 40.75ZM34.5 25C34.5 25.9283 34.1313 26.8185 33.4749 27.4749C32.8185 28.1313 31.9283 28.5 31 28.5C30.0717 28.5 29.1815 28.1313 28.5251 27.4749C27.8687 26.8185 27.5 25.9283 27.5 25C27.5 24.0717 27.8687 23.1815 28.5251 22.5251C29.1815 21.8687 30.0717 21.5 31 21.5C31.9283 21.5 32.8185 21.8687 33.4749 22.5251C34.1313 23.1815 34.5 24.0717 34.5 25Z" stroke="white" stroke-width="2" stroke-linecap="round" stroke-linejoin="round"/>
</svg>
