<svg width="24" height="24" viewBox="0 0 24 24" fill="none" xmlns="http://www.w3.org/2000/svg">
<rect width="24" height="24" rx="4" fill="#123057"/>
<path d="M9.09729 5.78906H7.26316C6.56554 5.78906 6 6.3546 6 7.05222C6 12.982 10.807 17.7891 16.7368 17.7891C17.4345 17.7891 18 17.2235 18 16.5259V14.6918C18 14.1466 17.6681 13.6563 17.1619 13.4538L15.4047 12.751C14.95 12.5691 14.4322 12.6511 14.056 12.9646L13.6021 13.3429C13.0723 13.7844 12.2933 13.749 11.8057 13.2614L10.5277 11.9834C10.04 11.4958 10.0047 10.7168 10.4462 10.187L10.8244 9.73308C11.138 9.35685 11.22 8.83903 11.0381 8.38432L10.3353 6.62721C10.1328 6.121 9.6425 5.78906 9.09729 5.78906Z" stroke="white" stroke-linecap="round" stroke-linejoin="round"/>
</svg>
