<svg width="34" height="35" viewBox="0 0 34 35" fill="none" xmlns="http://www.w3.org/2000/svg">
<rect y="0.5" width="34" height="34" rx="3" fill="#F7F8F9"/>
<path d="M12.1621 7.5H9.10526C7.94256 7.5 7 8.44256 7 9.60526C7 19.4883 15.0117 27.5 24.8947 27.5C26.0574 27.5 27 26.5574 27 25.3947V22.3379C27 21.4292 26.4468 20.612 25.6031 20.2746L22.6746 19.1032C21.9167 18.8 21.0537 18.9367 20.4266 19.4593L19.6701 20.0897C18.7872 20.8255 17.4888 20.7666 16.6761 19.9539L14.5461 17.8239C13.7334 17.0112 13.6745 15.7128 14.4103 14.8299L15.0407 14.0734C15.5633 13.4463 15.7 12.5833 15.3968 11.8254L14.2254 8.89691C13.888 8.05322 13.0708 7.5 12.1621 7.5Z" stroke="#0F243D" stroke-opacity="0.8" stroke-width="1.5" stroke-linecap="round" stroke-linejoin="round"/>
</svg>
