<svg width="72" height="72" viewBox="0 0 72 72" fill="none" xmlns="http://www.w3.org/2000/svg">
<rect width="72" height="72" rx="8" fill="#4183F5"/>
<path d="M32.5 50H23.75C22.7835 50 22 49.2165 22 48.25L22 23.75C22 22.7835 22.7835 22 23.75 22L48.25 22C49.2165 22 50 22.7835 50 23.75V32.5" stroke="white" stroke-width="2" stroke-linecap="round" stroke-linejoin="round"/>
<path d="M43 43L48.25 48.25" stroke="white" stroke-width="2" stroke-linecap="round" stroke-linejoin="round"/>
<path d="M38.625 44.75C42.0077 44.75 44.75 42.0077 44.75 38.625C44.75 35.2423 42.0077 32.5 38.625 32.5C35.2423 32.5 32.5 35.2423 32.5 38.625C32.5 42.0077 35.2423 44.75 38.625 44.75Z" stroke="white" stroke-width="2" stroke-linecap="round" stroke-linejoin="round"/>
</svg>
