<svg width="25" height="20" viewBox="0 0 25 20" fill="none" xmlns="http://www.w3.org/2000/svg">
<path d="M24.1183 2.34093C23.585 2.57739 23.0315 2.76394 22.4635 2.89899C23.0894 2.30425 23.5599 1.56035 23.8254 0.730032C23.9012 0.49299 23.6437 0.288014 23.4297 0.414932C22.6395 0.883632 21.7884 1.23525 20.8998 1.46012C20.8483 1.47317 20.7951 1.47978 20.7417 1.47978C20.5799 1.47978 20.4225 1.41968 20.2988 1.31061C19.3534 0.477425 18.1375 0.0185547 16.8752 0.0185547C16.329 0.0185547 15.7775 0.103693 15.236 0.27163C13.5582 0.791999 12.2637 2.17592 11.8576 3.88338C11.7052 4.52382 11.664 5.16484 11.7349 5.78861C11.743 5.86029 11.7091 5.91032 11.6882 5.93378C11.6515 5.97492 11.5995 5.9985 11.5455 5.9985C11.5395 5.9985 11.5333 5.99821 11.5271 5.99762C7.85466 5.65642 4.54298 3.88712 2.20211 1.0157C2.08274 0.869238 1.85383 0.887202 1.75868 1.0504C1.30028 1.83683 1.05803 2.73632 1.05803 3.6516C1.05803 5.05431 1.62158 6.37621 2.60047 7.33988C2.18882 7.24228 1.7904 7.08856 1.4203 6.883C1.24124 6.78353 1.02093 6.91138 1.01842 7.11618C0.992788 9.2 2.21281 11.0542 4.04046 11.8891C4.00365 11.89 3.96684 11.8904 3.92998 11.8904C3.64028 11.8904 3.34694 11.8625 3.05823 11.8073C2.85659 11.7688 2.68719 11.9601 2.7498 12.1556C3.34302 14.0076 4.93766 15.3727 6.84593 15.6827C5.26218 16.7458 3.41786 17.3067 1.49829 17.3067L0.899867 17.3063C0.715488 17.3063 0.559547 17.4265 0.51256 17.6051C0.466275 17.781 0.551531 17.9665 0.708759 18.058C2.8718 19.3168 5.33907 19.9821 7.84489 19.9821C10.0383 19.9821 12.0901 19.5468 13.9432 18.6884C15.6421 17.9015 17.1433 16.7765 18.4052 15.3448C19.5808 14.0112 20.5 12.4716 21.1374 10.7689C21.7449 9.14593 22.0661 7.41414 22.0661 5.76075V5.68199C22.066 5.41651 22.1861 5.16672 22.3956 4.99667C23.1905 4.35126 23.8827 3.59151 24.4529 2.73854C24.6035 2.51332 24.366 2.23105 24.1183 2.34093Z" fill="white" fill-opacity="0.8"/>
</svg>
