<svg width="24" height="21" viewBox="0 0 24 21" fill="none" xmlns="http://www.w3.org/2000/svg">
<path d="M23.6183 2.84093C23.085 3.07739 22.5315 3.26394 21.9635 3.39899C22.5894 2.80425 23.0599 2.06035 23.3254 1.23003C23.4012 0.99299 23.1437 0.788014 22.9297 0.914932C22.1395 1.38363 21.2884 1.73525 20.3998 1.96012C20.3483 1.97317 20.2951 1.97978 20.2417 1.97978C20.0799 1.97978 19.9225 1.91968 19.7988 1.81061C18.8534 0.977425 17.6375 0.518555 16.3752 0.518555C15.829 0.518555 15.2775 0.603693 14.736 0.77163C13.0582 1.292 11.7637 2.67592 11.3576 4.38338C11.2052 5.02382 11.164 5.66484 11.2349 6.28861C11.243 6.36029 11.2091 6.41032 11.1882 6.43378C11.1515 6.47492 11.0995 6.4985 11.0455 6.4985C11.0395 6.4985 11.0333 6.49821 11.0271 6.49762C7.35466 6.15642 4.04298 4.38712 1.70211 1.5157C1.58274 1.36924 1.35383 1.3872 1.25868 1.5504C0.800282 2.33683 0.558032 3.23632 0.558032 4.1516C0.558032 5.55431 1.12158 6.87621 2.10047 7.83988C1.68882 7.74228 1.2904 7.58856 0.920295 7.383C0.741241 7.28353 0.520934 7.41138 0.518418 7.61618C0.492788 9.7 1.71281 11.5542 3.54046 12.3891C3.50365 12.39 3.46684 12.3904 3.42998 12.3904C3.14028 12.3904 2.84694 12.3625 2.55823 12.3073C2.35659 12.2688 2.18719 12.4601 2.2498 12.6556C2.84302 14.5076 4.43766 15.8727 6.34593 16.1827C4.76218 17.2458 2.91786 17.8067 0.998295 17.8067L0.399867 17.8063C0.215488 17.8063 0.0595472 17.9265 0.0125601 18.1051C-0.0337248 18.281 0.0515308 18.4665 0.208759 18.558C2.3718 19.8168 4.83907 20.4821 7.34489 20.4821C9.53831 20.4821 11.5901 20.0468 13.4432 19.1884C15.1421 18.4015 16.6433 17.2765 17.9052 15.8448C19.0808 14.5112 20 12.9716 20.6374 11.2689C21.2449 9.64593 21.5661 7.91414 21.5661 6.26075V6.18199C21.566 5.91651 21.6861 5.66672 21.8956 5.49667C22.6905 4.85126 23.3827 4.09151 23.9529 3.23854C24.1035 3.01332 23.866 2.73105 23.6183 2.84093Z" fill="#0F243D" fill-opacity="0.8"/>
</svg>
