<svg width="75" height="80" viewBox="0 0 75 80" fill="none" xmlns="http://www.w3.org/2000/svg">
<path fill-rule="evenodd" clip-rule="evenodd" d="M35.5174 0.00133102C52.7889 -0.153622 66.4033 13.241 71.7894 29.6132C77.2315 46.1557 74.6831 65.5372 60.3401 75.4558C46.722 84.8733 29.1193 78.271 15.9666 68.2167C4.0245 59.0877 -2.93688 44.6775 1.19909 30.2465C5.83827 14.0598 18.6428 0.152722 35.5174 0.00133102Z" fill="#5BF542"/>
<path d="M41.9374 35.0625H51.1249V37.6875H41.9374V35.0625ZM41.9374 28.5H56.3749V31.125H41.9374V28.5ZM41.9374 21.9375H56.3749V24.5625H41.9374V21.9375ZM31.4374 57.375H26.1874C25.4919 57.3729 24.8254 57.0957 24.3335 56.6039C23.8417 56.112 23.5645 55.4456 23.5624 54.75V45.5625C22.8669 45.5604 22.2004 45.2832 21.7085 44.7914C21.2167 44.2995 20.9395 43.6331 20.9374 42.9375V35.0625C20.928 34.5428 21.0234 34.0266 21.2179 33.5446C21.4124 33.0626 21.7021 32.6248 22.0697 32.2573C22.4372 31.8897 22.875 31.6 23.357 31.4055C23.839 31.211 24.3552 31.1156 24.8749 31.125H32.7499C33.2696 31.1156 33.7858 31.211 34.2678 31.4055C34.7498 31.6 35.1876 31.8897 35.5551 32.2573C35.9227 32.6248 36.2124 33.0626 36.4069 33.5446C36.6014 34.0266 36.6968 34.5428 36.6874 35.0625V42.9375C36.6853 43.6331 36.4081 44.2995 35.9163 44.7914C35.4244 45.2832 34.758 45.5604 34.0624 45.5625V54.75C34.0603 55.4456 33.7831 56.112 33.2913 56.6039C32.7994 57.0957 32.133 57.3729 31.4374 57.375ZM24.8749 33.75C24.6998 33.7395 24.5245 33.7662 24.3604 33.8285C24.1964 33.8907 24.0475 33.987 23.9234 34.111C23.7994 34.2351 23.7031 34.384 23.6409 34.548C23.5786 34.7121 23.5519 34.8874 23.5624 35.0625V42.9375H26.1874V54.75H31.4374V42.9375H34.0624V35.0625C34.0729 34.8874 34.0462 34.7121 33.984 34.548C33.9217 34.384 33.8254 34.2351 33.7014 34.111C33.5773 33.987 33.4284 33.8907 33.2644 33.8285C33.1004 33.7662 32.925 33.7395 32.7499 33.75H24.8749ZM28.8124 29.8125C27.7741 29.8125 26.759 29.5046 25.8957 28.9277C25.0323 28.3508 24.3594 27.5309 23.962 26.5716C23.5647 25.6123 23.4607 24.5567 23.6633 23.5383C23.8659 22.5199 24.3659 21.5844 25.1001 20.8502C25.8343 20.116 26.7698 19.616 27.7882 19.4134C28.8066 19.2108 29.8622 19.3148 30.8215 19.7121C31.7808 20.1095 32.6007 20.7824 33.1776 21.6458C33.7545 22.5091 34.0624 23.5242 34.0624 24.5625C34.0589 25.9538 33.5047 27.2872 32.5209 28.271C31.5371 29.2548 30.2037 29.809 28.8124 29.8125ZM28.8124 21.9375C28.2932 21.9375 27.7857 22.0915 27.354 22.3799C26.9224 22.6683 26.5859 23.0783 26.3872 23.558C26.1885 24.0376 26.1366 24.5654 26.2378 25.0746C26.3391 25.5838 26.5891 26.0515 26.9562 26.4187C27.3234 26.7858 27.7911 27.0358 28.3003 27.1371C28.8095 27.2384 29.3373 27.1864 29.8169 26.9877C30.2966 26.789 30.7066 26.4526 30.995 26.0209C31.2835 25.5892 31.4374 25.0817 31.4374 24.5625C31.4353 23.8669 31.1581 23.2005 30.6663 22.7086C30.1744 22.2168 29.508 21.9396 28.8124 21.9375Z" fill="white"/>
</svg>
