<svg width="41" height="32" viewBox="0 0 41 32" fill="none" xmlns="http://www.w3.org/2000/svg">
<g clip-path="url(#clip0_514_2038)">
<path d="M20.0117 13.6925C19.9896 15.4755 21.5628 16.4705 22.748 17.0621C23.9657 17.6691 24.3747 18.0583 24.37 18.6011C24.3607 19.4319 23.3987 19.7985 22.4982 19.8128C20.9273 19.8378 20.014 19.3783 19.2878 19.0308L18.7219 21.7434C19.4505 22.0874 20.7994 22.3873 22.1984 22.4004C25.482 22.4004 27.6303 20.74 27.642 18.1655C27.6547 14.8982 23.2302 14.7173 23.2604 13.2569C23.2708 12.8141 23.6833 12.3415 24.5873 12.2213C25.0346 12.1606 26.2697 12.1142 27.6699 12.7748L28.2194 10.1503C27.4665 9.86939 26.4986 9.60039 25.2937 9.60039C22.203 9.60039 20.0291 11.2834 20.0117 13.6925ZM33.5003 9.82654C32.9008 9.82654 32.3954 10.1848 32.17 10.7347L27.4793 22.2076H30.7605L31.4135 20.3591H35.4233L35.8021 22.2076H38.6941L36.1704 9.82654L33.5003 9.82654ZM33.9593 13.1712L34.9063 17.8203H32.3129L33.9593 13.1712ZM16.0333 9.82654L13.4468 22.2076L16.5736 22.2076L19.1588 9.82654H16.0333ZM11.4077 9.82654L8.15316 18.2535L6.83671 11.0882C6.68218 10.2884 6.07217 9.82654 5.39477 9.82654H0.0743626L0 10.186C1.0922 10.4288 2.33313 10.8204 3.08489 11.2394C3.545 11.4953 3.6763 11.719 3.82735 12.3273L6.32082 22.2076H9.62531L14.6913 9.82654H11.4077Z" fill="#1B2073"/>
<path d="M0 0H39.814V4.26667H0V0Z" fill="#1B2073"/>
<path d="M0 27.7334H39.814V32.0001H0V27.7334Z" fill="#F7B802"/>
</g>
<defs>
<clipPath id="clip0_514_2038">
<rect width="41" height="32" fill="white"/>
</clipPath>
</defs>
</svg>
